# Blender v2.79 (sub 0) OBJ File: ''
# www.blender.org
mtllib phone.mtl
o Text
v 0.505000 0.980000 0.050000
v 0.505000 0.900000 0.050000
v 0.111000 0.900000 0.050000
v 0.349000 1.269000 0.050000
v 0.121000 1.269000 0.050000
v 0.121000 1.349000 0.050000
v 0.504000 1.349000 0.050000
v 0.265000 0.980000 0.050000
v 0.505000 0.980000 -0.050000
v 0.505000 0.900000 -0.050000
v 0.111000 0.900000 -0.050000
v 0.349000 1.269000 -0.050000
v 0.121000 1.269000 -0.050000
v 0.121000 1.349000 -0.050000
v 0.504000 1.349000 -0.050000
v 0.265000 0.980000 -0.050000
v 0.505000 0.980000 -0.050000
v 0.505000 0.980000 0.050000
v 0.505000 0.900000 -0.050000
v 0.505000 0.900000 0.050000
v 0.111000 0.900000 -0.050000
v 0.111000 0.900000 0.050000
v 0.349000 1.269000 -0.050000
v 0.349000 1.269000 0.050000
v 0.121000 1.269000 -0.050000
v 0.121000 1.269000 0.050000
v 0.121000 1.349000 -0.050000
v 0.121000 1.349000 0.050000
v 0.504000 1.349000 -0.050000
v 0.504000 1.349000 0.050000
v 0.265000 0.980000 -0.050000
v 0.265000 0.980000 0.050000
vn 0.0000 -0.0000 1.0000
vn 0.0000 0.0000 -1.0000
vn 0.7071 0.7071 0.0000
vn 0.7071 -0.7071 0.0000
vn -0.8780 -0.4785 0.0000
vn -0.7071 -0.7071 0.0000
vn -0.7071 0.7071 0.0000
vn 0.8785 0.4777 0.0000
usemtl None
s off
f 5//1 7//1 6//1
f 5//1 4//1 7//1
f 4//1 8//1 7//1
f 3//1 8//1 4//1
f 3//1 1//1 8//1
f 3//1 2//1 1//1
f 15//2 13//2 14//2
f 12//2 13//2 15//2
f 16//2 12//2 15//2
f 16//2 11//2 12//2
f 9//2 11//2 16//2
f 10//2 11//2 9//2
s 1
f 18//3 20//4 19//4 17//3
f 20//4 22//5 21//5 19//4
f 22//5 24//5 23//5 21//5
f 24//5 26//6 25//6 23//5
f 26//6 28//7 27//7 25//6
f 28//7 30//8 29//8 27//7
f 30//8 32//8 31//8 29//8
f 32//8 18//3 17//3 31//8
o Text.001
v 0.121000 0.050000 -3.670000
v 0.274000 0.050000 -3.996000
v 0.100000 0.050000 -4.349000
v 0.201000 0.050000 -4.349000
v 0.322000 0.050000 -4.096000
v 0.438000 0.050000 -4.349000
v 0.538000 0.050000 -4.349000
v 0.220000 0.050000 -3.670000
v 0.121000 -0.050000 -3.670000
v 0.274000 -0.050000 -3.996000
v 0.100000 -0.050000 -4.349000
v 0.201000 -0.050000 -4.349000
v 0.322000 -0.050000 -4.096000
v 0.438000 -0.050000 -4.349000
v 0.538000 -0.050000 -4.349000
v 0.220000 -0.050000 -3.670000
v 0.121000 -0.050000 -3.670000
v 0.121000 0.050000 -3.670000
v 0.274000 -0.050000 -3.996000
v 0.274000 0.050000 -3.996000
v 0.100000 -0.050000 -4.349000
v 0.100000 0.050000 -4.349000
v 0.201000 -0.050000 -4.349000
v 0.201000 0.050000 -4.349000
v 0.322000 -0.050000 -4.096000
v 0.322000 0.050000 -4.096000
v 0.438000 -0.050000 -4.349000
v 0.438000 0.050000 -4.349000
v 0.538000 -0.050000 -4.349000
v 0.538000 0.050000 -4.349000
v 0.220000 -0.050000 -3.670000
v 0.220000 0.050000 -3.670000
vn 0.0000 1.0000 0.0000
vn 0.0000 -1.0000 0.0000
vn -0.8441 0.0000 0.5362
vn -0.9999 0.0000 0.0096
vn -0.8491 0.0000 -0.5281
vn 0.5332 0.0000 -0.8460
vn -0.0081 0.0000 -0.9999
vn -0.5400 0.0000 -0.8416
vn 0.8438 0.0000 -0.5366
vn 0.5366 0.0000 0.8438
usemtl None
s off
f 34//9 36//9 35//9
f 34//9 37//9 36//9
f 37//9 39//9 38//9
f 37//9 40//9 39//9
f 34//9 40//9 37//9
f 33//9 40//9 34//9
f 44//10 42//10 43//10
f 45//10 42//10 44//10
f 47//10 45//10 46//10
f 48//10 45//10 47//10
f 48//10 42//10 45//10
f 48//10 41//10 42//10
s 1
f 50//11 52//12 51//12 49//11
f 52//12 54//13 53//13 51//12
f 54//13 56//14 55//14 53//13
f 56//14 58//15 57//15 55//14
f 58//15 60//16 59//16 57//15
f 60//16 62//17 61//17 59//16
f 62//17 64//18 63//18 61//17
f 64//18 50//11 49//11 63//18
o Text.002
v 2.700000 0.050000 0.600000
v 2.700000 0.050000 0.486000
v 2.861000 0.050000 0.345000
v 2.700000 0.050000 0.212000
v 2.700000 0.050000 0.100000
v 2.928000 0.050000 0.289000
v 3.149000 0.050000 0.100000
v 3.149000 0.050000 0.212000
v 2.995000 0.050000 0.345000
v 3.149000 0.050000 0.473000
v 3.149000 0.050000 0.587000
v 2.928000 0.050000 0.402000
v 2.700000 -0.050000 0.600000
v 2.700000 -0.050000 0.486000
v 2.861000 -0.050000 0.345000
v 2.700000 -0.050000 0.212000
v 2.700000 -0.050000 0.100000
v 2.928000 -0.050000 0.289000
v 3.149000 -0.050000 0.100000
v 3.149000 -0.050000 0.212000
v 2.995000 -0.050000 0.345000
v 3.149000 -0.050000 0.473000
v 3.149000 -0.050000 0.587000
v 2.928000 -0.050000 0.402000
v 2.700000 -0.050000 0.600000
v 2.700000 0.050000 0.600000
v 2.700000 -0.050000 0.486000
v 2.700000 0.050000 0.486000
v 2.861000 -0.050000 0.345000
v 2.861000 0.050000 0.345000
v 2.700000 -0.050000 0.212000
v 2.700000 0.050000 0.212000
v 2.700000 -0.050000 0.100000
v 2.700000 0.050000 0.100000
v 2.928000 -0.050000 0.289000
v 2.928000 0.050000 0.289000
v 3.149000 -0.050000 0.100000
v 3.149000 0.050000 0.100000
v 3.149000 -0.050000 0.212000
v 3.149000 0.050000 0.212000
v 2.995000 -0.050000 0.345000
v 2.995000 0.050000 0.345000
v 3.149000 -0.050000 0.473000
v 3.149000 0.050000 0.473000
v 3.149000 -0.050000 0.587000
v 3.149000 0.050000 0.587000
v 2.928000 -0.050000 0.402000
v 2.928000 0.050000 0.402000
vn 0.0000 1.0000 0.0000
vn 0.0000 -1.0000 0.0000
vn -0.4149 0.0000 0.9098
vn -0.9107 0.0000 -0.4130
vn -0.9999 0.0000 0.0144
vn -0.9047 0.0000 0.4261
vn -0.4253 0.0000 -0.9050
vn -0.0077 0.0000 -1.0000
vn 0.4183 0.0000 -0.9083
vn 0.9093 0.0000 0.4162
vn 0.9999 0.0000 -0.0094
vn 0.9053 0.0000 -0.4247
vn 0.4231 0.0000 0.9060
vn 0.0091 0.0000 0.9999
usemtl None
s off
f 70//19 72//19 71//19
f 70//19 73//19 72//19
f 73//19 75//19 74//19
f 73//19 76//19 75//19
f 70//19 76//19 73//19
f 69//19 76//19 70//19
f 69//19 67//19 76//19
f 67//19 65//19 76//19
f 69//19 68//19 67//19
f 66//19 65//19 67//19
f 84//20 82//20 83//20
f 85//20 82//20 84//20
f 87//20 85//20 86//20
f 88//20 85//20 87//20
f 88//20 82//20 85//20
f 88//20 81//20 82//20
f 79//20 81//20 88//20
f 77//20 79//20 88//20
f 80//20 81//20 79//20
f 77//20 78//20 79//20
s 1
f 90//21 92//22 91//22 89//21
f 92//22 94//23 93//23 91//22
f 94//23 96//24 95//24 93//23
f 96//24 98//25 97//25 95//24
f 98//25 100//26 99//26 97//25
f 100//26 102//27 101//27 99//26
f 102//27 104//28 103//28 101//27
f 104//28 106//29 105//29 103//28
f 106//29 108//30 107//30 105//29
f 108//30 110//31 109//31 107//30
f 110//31 112//32 111//32 109//31
f 112//32 90//21 89//21 111//32
o Cube.003_Cube.004
v 0.050000 -0.050000 -1.500000
v 0.050000 0.050000 -1.500000
v -0.050000 -0.050000 -1.500000
v -0.050000 0.050000 -1.500000
v 0.050000 -0.050000 -4.500000
v 0.050000 0.050000 -4.500000
v -0.050000 -0.050000 -4.500000
v -0.050000 0.050000 -4.500000
v 0.100000 -0.100000 -4.500000
v 0.100000 0.100000 -4.500000
v -0.100000 -0.100000 -4.500000
v -0.100000 0.100000 -4.500000
v -0.000000 0.000000 -4.660000
vn 0.0000 0.0000 1.0000
vn -1.0000 0.0000 0.0000
vn 1.0000 0.0000 -0.0000
vn 0.0000 -1.0000 0.0000
vn 0.0000 1.0000 0.0000
vn 0.0000 0.8480 -0.5300
vn -0.8480 0.0000 -0.5300
vn 0.8480 0.0000 -0.5300
vn 0.0000 -0.8480 -0.5300
usemtl None
s off
f 113//33 114//33 116//33 115//33
f 115//34 116//34 120//34 119//34
f 120//33 118//33 122//33 124//33
f 117//35 118//35 114//35 113//35
f 115//36 119//36 117//36 113//36
f 120//37 116//37 114//37 118//37
f 124//38 122//38 125//38
f 119//33 120//33 124//33 123//33
f 118//33 117//33 121//33 122//33
f 117//33 119//33 123//33 121//33
f 123//39 124//39 125//39
f 122//40 121//40 125//40
f 121//41 123//41 125//41
o Cube.002_Cube.003
v 0.050000 -1.500000 0.050000
v -0.050000 -1.500000 0.050000
v 0.050000 -1.500000 -0.050000
v -0.050000 -1.500000 -0.050000
v 0.050000 1.500000 0.050000
v -0.050000 1.500000 0.050000
v 0.050000 1.500000 -0.050000
v -0.050000 1.500000 -0.050000
v 0.100000 1.500000 0.100000
v -0.100000 1.500000 0.100000
v 0.100000 1.500000 -0.100000
v -0.100000 1.500000 -0.100000
v 0.000000 1.660000 0.000000
vn 0.0000 -1.0000 0.0000
vn 0.0000 0.0000 -1.0000
vn 0.0000 0.0000 1.0000
vn 1.0000 -0.0000 0.0000
vn -1.0000 0.0000 0.0000
vn -0.8480 0.5300 0.0000
vn 0.0000 0.5300 -0.8480
vn 0.0000 0.5300 0.8480
vn 0.8480 0.5300 0.0000
usemtl None
s off
f 126//42 127//42 129//42 128//42
f 128//43 129//43 133//43 132//43
f 133//42 131//42 135//42 137//42
f 130//44 131//44 127//44 126//44
f 128//45 132//45 130//45 126//45
f 133//46 129//46 127//46 131//46
f 137//47 135//47 138//47
f 132//42 133//42 137//42 136//42
f 131//42 130//42 134//42 135//42
f 130//42 132//42 136//42 134//42
f 136//48 137//48 138//48
f 135//49 134//49 138//49
f 134//50 136//50 138//50
o Cube.001_Cube.002
v 0.500000 -0.050000 0.050000
v 0.500000 0.050000 0.050000
v 0.500000 -0.050000 -0.050000
v 0.500000 0.050000 -0.050000
v 3.500000 -0.050000 0.050000
v 3.500000 0.050000 0.050000
v 3.500000 -0.050000 -0.050000
v 3.500000 0.050000 -0.050000
v 3.500000 -0.100000 0.100000
v 3.500000 0.100000 0.100000
v 3.500000 -0.100000 -0.100000
v 3.500000 0.100000 -0.100000
v 3.660000 0.000000 0.000000
vn -1.0000 0.0000 0.0000
vn 0.0000 0.0000 -1.0000
vn 0.0000 0.0000 1.0000
vn 0.0000 -1.0000 0.0000
vn 0.0000 1.0000 0.0000
vn 0.5300 0.8480 0.0000
vn 0.5300 0.0000 -0.8480
vn 0.5300 0.0000 0.8480
vn 0.5300 -0.8480 0.0000
usemtl None
s off
f 139//51 140//51 142//51 141//51
f 141//52 142//52 146//52 145//52
f 146//51 144//51 148//51 150//51
f 143//53 144//53 140//53 139//53
f 141//54 145//54 143//54 139//54
f 146//55 142//55 140//55 144//55
f 150//56 148//56 151//56
f 145//51 146//51 150//51 149//51
f 144//51 143//51 147//51 148//51
f 143//51 145//51 149//51 147//51
f 149//57 150//57 151//57
f 148//58 147//58 151//58
f 147//59 149//59 151//59
o Cube_Cube.001
v -1.700000 -0.300000 3.000000
v -1.700000 0.300000 3.000000
v -1.700000 -0.300000 -3.000000
v -1.700000 0.300000 -3.000000
v 1.700000 -0.300000 3.000000
v 1.700000 0.300000 3.000000
v 1.700000 -0.300000 -3.000000
v 1.700000 0.300000 -3.000000
vn -1.0000 0.0000 0.0000
vn 0.0000 0.0000 -1.0000
vn 1.0000 0.0000 0.0000
vn 0.0000 0.0000 1.0000
vn 0.0000 -1.0000 0.0000
vn 0.0000 1.0000 0.0000
usemtl None
s off
f 152//60 153//60 155//60 154//60
f 154//61 155//61 159//61 158//61
f 158//62 159//62 157//62 156//62
f 156//63 157//63 153//63 152//63
f 154//64 158//64 156//64 152//64
f 159//65 155//65 153//65 157//65
